<svg width="30" height="31" viewBox="0 0 30 31" fill="none" xmlns="http://www.w3.org/2000/svg">
<g clip-path="url(#clip0_3972_1307)">
<path d="M15 0.5C19.1418 0.5 22.892 2.17918 25.6064 4.89359C28.3208 7.60801 30 11.3582 30 15.5C30 19.6418 28.3208 23.392 25.6064 26.1064C22.892 28.8208 19.1418 30.5 15 30.5C10.8582 30.5 7.10801 28.8208 4.39359 26.1064C1.67918 23.392 0 19.6418 0 15.5C0 11.3582 1.67918 7.60801 4.39359 4.89359C7.10801 2.17918 10.8582 0.5 15 0.5Z" fill="#C02323"/>
<path d="M15.0002 28.7738C22.331 28.7738 28.2738 22.831 28.2738 15.5002C28.2738 8.16935 22.331 2.22656 15.0002 2.22656C7.66935 2.22656 1.72656 8.16935 1.72656 15.5002C1.72656 22.831 7.66935 28.7738 15.0002 28.7738Z" fill="white"/>
<path d="M16.145 18.2116C16.0935 19.5043 13.9041 19.506 13.8541 18.2112C13.6327 15.9961 13.0664 10.7374 13.0844 8.65606C13.1027 8.01469 13.6342 7.635 14.3143 7.49016C14.5239 7.44533 14.7544 7.4236 14.9867 7.42383C15.2203 7.42424 15.4515 7.44727 15.6614 7.49209C16.3638 7.64174 16.9154 8.03707 16.9151 8.68998L16.9126 8.75543L16.145 18.2116ZM14.9995 20.5091C15.8464 20.5091 16.5328 21.1956 16.5328 22.0426C16.5328 22.8894 15.8464 23.5758 14.9995 23.5758C14.1527 23.5758 13.4661 22.8894 13.4661 22.0426C13.4661 21.1956 14.1527 20.5091 14.9995 20.5091Z" fill="#C02323"/>
</g>
<defs>
<clipPath id="clip0_3972_1307">
<rect width="30" height="30" fill="white" transform="translate(0 0.5)"/>
</clipPath>
</defs>
</svg>
