<svg width="17" height="18" viewBox="0 0 17 18" fill="none" xmlns="http://www.w3.org/2000/svg">
<path d="M15.5219 9.00022C15.5219 12.8782 12.3782 16.0219 8.50022 16.0219C4.62224 16.0219 1.47852 12.8782 1.47852 9.00022C1.47852 5.12224 4.62224 1.97852 8.50022 1.97852C12.3782 1.97852 15.5219 5.12224 15.5219 9.00022Z" stroke="#C02323"/>
<path d="M9.14867 10.5369C9.11945 11.2694 7.87878 11.2704 7.85046 10.5367C7.72498 9.28145 7.40407 6.3015 7.4143 5.12209C7.42466 4.75865 7.72585 4.54349 8.11123 4.46142C8.23004 4.43601 8.36066 4.4237 8.49227 4.42383C8.62465 4.42406 8.75564 4.43711 8.87457 4.46251C9.27265 4.54731 9.58519 4.77133 9.58506 5.14132L9.58359 5.1784L9.14867 10.5369ZM8.49955 11.8388C8.97943 11.8388 9.36841 12.2279 9.36841 12.7078C9.36841 13.1877 8.97943 13.5766 8.49955 13.5766C8.01966 13.5766 7.63059 13.1877 7.63059 12.7078C7.63059 12.2279 8.01966 11.8388 8.49955 11.8388Z" fill="#C02323"/>
</svg>
