<svg width="24" height="24" viewBox="0 0 24 24" fill="none" xmlns="http://www.w3.org/2000/svg">
<path fill-rule="evenodd" clip-rule="evenodd" d="M21.3465 8.33489C21.7139 8.52615 21.8567 8.97904 21.6654 9.34645C21.2929 10.0622 20.7404 10.7038 20.0642 11.2579C18.1798 12.8023 15.2389 13.7502 12.0002 13.7502C8.76141 13.7502 5.82048 12.8023 3.93613 11.2579C3.25991 10.7037 2.70746 10.0622 2.33489 9.34646C2.14363 8.97905 2.28643 8.52616 2.65385 8.33489C3.02126 8.14363 3.47415 8.28643 3.66541 8.65385C3.92757 9.15744 4.33686 9.64697 4.88693 10.0978C6.44081 11.3713 9.0179 12.2502 12.0002 12.2502C14.9824 12.2502 17.5595 11.3713 19.1133 10.0978C19.6633 9.64697 20.0728 9.15743 20.3349 8.65385C20.5261 8.28644 20.979 8.14363 21.3465 8.33489Z" fill="#9491A8"/>
<path fill-rule="evenodd" clip-rule="evenodd" d="M14.2944 12.2757C14.6945 12.1685 15.1057 12.406 15.2129 12.8061L16.2482 16.6698C16.3554 17.0699 16.1179 17.4811 15.7178 17.5883C15.3177 17.6955 14.9065 17.4581 14.7993 17.058L13.764 13.1943C13.6568 12.7942 13.8943 12.3829 14.2944 12.2757Z" fill="#9491A8"/>
<path fill-rule="evenodd" clip-rule="evenodd" d="M18.1464 11.1464C18.4393 10.8536 18.9142 10.8535 19.2071 11.1464L22.0355 13.9748C22.3284 14.2677 22.3284 14.7426 22.0355 15.0355C21.7427 15.3284 21.2678 15.3284 20.9749 15.0355L18.1464 12.2071C17.8535 11.9142 17.8535 11.4393 18.1464 11.1464Z" fill="#9491A8"/>
<path fill-rule="evenodd" clip-rule="evenodd" d="M5.85874 11.1464C6.15163 11.4393 6.15163 11.9142 5.85874 12.2071L3.03033 15.0355C2.73744 15.3284 2.26256 15.3284 1.96967 15.0355C1.67678 14.7426 1.67678 14.2677 1.96967 13.9748L4.79808 11.1464C5.09097 10.8535 5.56585 10.8535 5.85874 11.1464Z" fill="#9491A8"/>
<path fill-rule="evenodd" clip-rule="evenodd" d="M9.69347 12.2757C10.0936 12.383 10.331 12.7942 10.2238 13.1943L9.1885 17.058C9.08129 17.4581 8.67003 17.6955 8.26993 17.5883C7.86984 17.4811 7.6324 17.0699 7.73961 16.6698L8.77491 12.8061C8.88212 12.406 9.29337 12.1685 9.69347 12.2757Z" fill="#9491A8"/>
</svg>
