<svg width="24" height="24" viewBox="0 0 24 24" fill="none" xmlns="http://www.w3.org/2000/svg">
<path fill-rule="evenodd" clip-rule="evenodd" d="M21.3465 14.6651C21.7139 14.4738 21.8567 14.021 21.6654 13.6535C21.2929 12.9378 20.7404 12.2962 20.0642 11.7421C18.1798 10.1977 15.2389 9.2498 12.0002 9.2498C8.76141 9.2498 5.82048 10.1977 3.93613 11.7421C3.25991 12.2963 2.70746 12.9378 2.33489 13.6535C2.14363 14.0209 2.28643 14.4738 2.65385 14.6651C3.02126 14.8564 3.47415 14.7136 3.66541 14.3461C3.92757 13.8426 4.33686 13.353 4.88693 12.9022C6.44081 11.6287 9.0179 10.7498 12.0002 10.7498C14.9824 10.7498 17.5595 11.6287 19.1133 12.9022C19.6633 13.353 20.0728 13.8426 20.3349 14.3461C20.5261 14.7136 20.979 14.8564 21.3465 14.6651Z" fill="#9491A8"/>
<path fill-rule="evenodd" clip-rule="evenodd" d="M14.2944 10.7243C14.6945 10.8315 15.1057 10.594 15.2129 10.1939L16.2482 6.33019C16.3554 5.93009 16.1179 5.51889 15.7178 5.41169C15.3177 5.30449 14.9065 5.54189 14.7993 5.94199L13.764 9.80569C13.6568 10.2058 13.8943 10.6171 14.2944 10.7243Z" fill="#9491A8"/>
<path fill-rule="evenodd" clip-rule="evenodd" d="M18.1464 11.8536C18.4393 12.1464 18.9142 12.1465 19.2071 11.8536L22.0355 9.02519C22.3284 8.73229 22.3284 8.25739 22.0355 7.96449C21.7427 7.67159 21.2678 7.67159 20.9749 7.96449L18.1464 10.7929C17.8535 11.0858 17.8535 11.5607 18.1464 11.8536Z" fill="#9491A8"/>
<path fill-rule="evenodd" clip-rule="evenodd" d="M5.85874 11.8536C6.15163 11.5607 6.15163 11.0858 5.85874 10.7929L3.03033 7.96449C2.73744 7.67159 2.26256 7.67159 1.96967 7.96449C1.67678 8.25739 1.67678 8.73229 1.96967 9.02519L4.79808 11.8536C5.09097 12.1465 5.56585 12.1465 5.85874 11.8536Z" fill="#9491A8"/>
<path fill-rule="evenodd" clip-rule="evenodd" d="M9.69347 10.7243C10.0936 10.617 10.331 10.2058 10.2238 9.80569L9.1885 5.94199C9.08129 5.54189 8.67003 5.30449 8.26993 5.41169C7.86984 5.51889 7.6324 5.93009 7.73961 6.33019L8.77491 10.1939C8.88212 10.594 9.29337 10.8315 9.69347 10.7243Z" fill="#9491A8"/>
<circle cx="12" cy="15" r="3" fill="#9491A8"/>
</svg>
